<?xml version="1.0" encoding="UTF-8" standalone="no"?>
<!DOCTYPE svg PUBLIC "-//W3C//DTD SVG 1.1//EN"
 "http://www.w3.org/Graphics/SVG/1.1/DTD/svg11.dtd">
<!-- Generated by graphviz version 2.43.0 (0)
 -->
<!-- Title: snakemake_dag Pages: 1 -->
<svg width="755pt" height="260pt"
 viewBox="0.00 0.00 755.00 260.00" xmlns="http://www.w3.org/2000/svg" xmlns:xlink="http://www.w3.org/1999/xlink">
<g id="graph0" class="graph" transform="scale(1 1) rotate(0) translate(4 256)">
<title>snakemake_dag</title>
<polygon fill="white" stroke="transparent" points="-4,4 -4,-256 751,-256 751,4 -4,4"/>
<!-- 0 -->
<g id="node1" class="node">
<title>0</title>
<path fill="none" stroke="#d85656" stroke-width="2" d="M377,-36C377,-36 347,-36 347,-36 341,-36 335,-30 335,-24 335,-24 335,-12 335,-12 335,-6 341,0 347,0 347,0 377,0 377,0 383,0 389,-6 389,-12 389,-12 389,-24 389,-24 389,-30 383,-36 377,-36"/>
<text text-anchor="middle" x="362" y="-15.5" font-family="sans" font-size="10.00">all</text>
</g>
<!-- 1 -->
<g id="node2" class="node">
<title>1</title>
<path fill="none" stroke="#d8b456" stroke-width="2" d="M86,-108C86,-108 12,-108 12,-108 6,-108 0,-102 0,-96 0,-96 0,-84 0,-84 0,-78 6,-72 12,-72 12,-72 86,-72 86,-72 92,-72 98,-78 98,-84 98,-84 98,-96 98,-96 98,-102 92,-108 86,-108"/>
<text text-anchor="middle" x="49" y="-87.5" font-family="sans" font-size="10.00">annotate_prokka</text>
</g>
<!-- 1&#45;&gt;0 -->
<g id="edge2" class="edge">
<title>1&#45;&gt;0</title>
<path fill="none" stroke="grey" stroke-width="2" d="M98.29,-74.26C101.23,-73.47 104.15,-72.71 107,-72 183.79,-52.8 274.79,-35.08 324.67,-25.79"/>
<polygon fill="grey" stroke="grey" stroke-width="2" points="325.47,-29.2 334.66,-23.94 324.19,-22.32 325.47,-29.2"/>
</g>
<!-- 2 -->
<g id="node3" class="node">
<title>2</title>
<path fill="none" stroke="#d89556" stroke-width="2" d="M193.5,-108C193.5,-108 128.5,-108 128.5,-108 122.5,-108 116.5,-102 116.5,-96 116.5,-96 116.5,-84 116.5,-84 116.5,-78 122.5,-72 128.5,-72 128.5,-72 193.5,-72 193.5,-72 199.5,-72 205.5,-78 205.5,-84 205.5,-84 205.5,-96 205.5,-96 205.5,-102 199.5,-108 193.5,-108"/>
<text text-anchor="middle" x="161" y="-87.5" font-family="sans" font-size="10.00">annotate_pgap</text>
</g>
<!-- 2&#45;&gt;0 -->
<g id="edge6" class="edge">
<title>2&#45;&gt;0</title>
<path fill="none" stroke="grey" stroke-width="2" d="M205.61,-73.46C241.61,-60.93 291.64,-43.5 325.34,-31.77"/>
<polygon fill="grey" stroke="grey" stroke-width="2" points="326.51,-35.06 334.81,-28.47 324.21,-28.45 326.51,-35.06"/>
</g>
<!-- 3 -->
<g id="node4" class="node">
<title>3</title>
<path fill="none" stroke="#56d8c1" stroke-width="2" d="M201,-180C201,-180 115,-180 115,-180 109,-180 103,-174 103,-168 103,-168 103,-156 103,-156 103,-150 109,-144 115,-144 115,-144 201,-144 201,-144 207,-144 213,-150 213,-156 213,-156 213,-168 213,-168 213,-174 207,-180 201,-180"/>
<text text-anchor="middle" x="158" y="-159.5" font-family="sans" font-size="10.00">prepare_yaml_files</text>
</g>
<!-- 3&#45;&gt;2 -->
<g id="edge8" class="edge">
<title>3&#45;&gt;2</title>
<path fill="none" stroke="grey" stroke-width="2" d="M158.74,-143.7C159.07,-135.98 159.47,-126.71 159.84,-118.11"/>
<polygon fill="grey" stroke="grey" stroke-width="2" points="163.34,-118.25 160.27,-108.1 156.34,-117.95 163.34,-118.25"/>
</g>
<!-- 4 -->
<g id="node5" class="node">
<title>4</title>
<path fill="none" stroke="#68d856" stroke-width="2" d="M192,-252C192,-252 124,-252 124,-252 118,-252 112,-246 112,-240 112,-240 112,-228 112,-228 112,-222 118,-216 124,-216 124,-216 192,-216 192,-216 198,-216 204,-222 204,-228 204,-228 204,-240 204,-240 204,-246 198,-252 192,-252"/>
<text text-anchor="middle" x="158" y="-231.5" font-family="sans" font-size="10.00">get_pgap_fasta</text>
</g>
<!-- 4&#45;&gt;3 -->
<g id="edge9" class="edge">
<title>4&#45;&gt;3</title>
<path fill="none" stroke="grey" stroke-width="2" d="M158,-215.7C158,-207.98 158,-198.71 158,-190.11"/>
<polygon fill="grey" stroke="grey" stroke-width="2" points="161.5,-190.1 158,-180.1 154.5,-190.1 161.5,-190.1"/>
</g>
<!-- 5 -->
<g id="node6" class="node">
<title>5</title>
<path fill="none" stroke="#d87556" stroke-width="2" d="M304.5,-108C304.5,-108 235.5,-108 235.5,-108 229.5,-108 223.5,-102 223.5,-96 223.5,-96 223.5,-84 223.5,-84 223.5,-78 229.5,-72 235.5,-72 235.5,-72 304.5,-72 304.5,-72 310.5,-72 316.5,-78 316.5,-84 316.5,-84 316.5,-96 316.5,-96 316.5,-102 310.5,-108 304.5,-108"/>
<text text-anchor="middle" x="270" y="-87.5" font-family="sans" font-size="10.00">annotate_bakta</text>
</g>
<!-- 5&#45;&gt;0 -->
<g id="edge4" class="edge">
<title>5&#45;&gt;0</title>
<path fill="none" stroke="grey" stroke-width="2" d="M292.74,-71.7C304.44,-62.8 318.86,-51.82 331.51,-42.2"/>
<polygon fill="grey" stroke="grey" stroke-width="2" points="333.68,-44.94 339.52,-36.1 329.44,-39.37 333.68,-44.94"/>
</g>
<!-- 6 -->
<g id="node7" class="node">
<title>6</title>
<path fill="none" stroke="#9fd856" stroke-width="2" d="M302.5,-180C302.5,-180 243.5,-180 243.5,-180 237.5,-180 231.5,-174 231.5,-168 231.5,-168 231.5,-156 231.5,-156 231.5,-150 237.5,-144 243.5,-144 243.5,-144 302.5,-144 302.5,-144 308.5,-144 314.5,-150 314.5,-156 314.5,-156 314.5,-168 314.5,-168 314.5,-174 308.5,-180 302.5,-180"/>
<text text-anchor="middle" x="273" y="-159.5" font-family="sans" font-size="10.00">get_bakta_db</text>
</g>
<!-- 6&#45;&gt;5 -->
<g id="edge10" class="edge">
<title>6&#45;&gt;5</title>
<path fill="none" stroke="grey" stroke-width="2" d="M272.26,-143.7C271.93,-135.98 271.53,-126.71 271.16,-118.11"/>
<polygon fill="grey" stroke="grey" stroke-width="2" points="274.66,-117.95 270.73,-108.1 267.66,-118.25 274.66,-117.95"/>
</g>
<!-- 7 -->
<g id="node8" class="node">
<title>7</title>
<path fill="none" stroke="#56d0d8" stroke-width="2" d="M377,-108C377,-108 347,-108 347,-108 341,-108 335,-102 335,-96 335,-96 335,-84 335,-84 335,-78 341,-72 347,-72 347,-72 377,-72 377,-72 383,-72 389,-78 389,-84 389,-84 389,-96 389,-96 389,-102 383,-108 377,-108"/>
<text text-anchor="middle" x="362" y="-87.5" font-family="sans" font-size="10.00">quast</text>
</g>
<!-- 7&#45;&gt;0 -->
<g id="edge7" class="edge">
<title>7&#45;&gt;0</title>
<path fill="none" stroke="grey" stroke-width="2" d="M362,-71.7C362,-63.98 362,-54.71 362,-46.11"/>
<polygon fill="grey" stroke="grey" stroke-width="2" points="365.5,-46.1 362,-36.1 358.5,-46.1 365.5,-46.1"/>
</g>
<!-- 8 -->
<g id="node9" class="node">
<title>8</title>
<path fill="none" stroke="#d8d356" stroke-width="2" d="M450.5,-108C450.5,-108 419.5,-108 419.5,-108 413.5,-108 407.5,-102 407.5,-96 407.5,-96 407.5,-84 407.5,-84 407.5,-78 413.5,-72 419.5,-72 419.5,-72 450.5,-72 450.5,-72 456.5,-72 462.5,-78 462.5,-84 462.5,-84 462.5,-96 462.5,-96 462.5,-102 456.5,-108 450.5,-108"/>
<text text-anchor="middle" x="435" y="-87.5" font-family="sans" font-size="10.00">checkm</text>
</g>
<!-- 8&#45;&gt;0 -->
<g id="edge3" class="edge">
<title>8&#45;&gt;0</title>
<path fill="none" stroke="grey" stroke-width="2" d="M416.96,-71.7C407.94,-63.05 396.88,-52.45 387.06,-43.03"/>
<polygon fill="grey" stroke="grey" stroke-width="2" points="389.48,-40.5 379.84,-36.1 384.63,-45.55 389.48,-40.5"/>
</g>
<!-- 9 -->
<g id="node10" class="node">
<title>9</title>
<path fill="none" stroke="#88d856" stroke-width="2" d="M466.5,-180C466.5,-180 403.5,-180 403.5,-180 397.5,-180 391.5,-174 391.5,-168 391.5,-168 391.5,-156 391.5,-156 391.5,-150 397.5,-144 403.5,-144 403.5,-144 466.5,-144 466.5,-144 472.5,-144 478.5,-150 478.5,-156 478.5,-156 478.5,-168 478.5,-168 478.5,-174 472.5,-180 466.5,-180"/>
<text text-anchor="middle" x="435" y="-159.5" font-family="sans" font-size="10.00">get_ceckm_db</text>
</g>
<!-- 9&#45;&gt;8 -->
<g id="edge11" class="edge">
<title>9&#45;&gt;8</title>
<path fill="none" stroke="grey" stroke-width="2" d="M435,-143.7C435,-135.98 435,-126.71 435,-118.11"/>
<polygon fill="grey" stroke="grey" stroke-width="2" points="438.5,-118.1 435,-108.1 431.5,-118.1 438.5,-118.1"/>
</g>
<!-- 10 -->
<g id="node11" class="node">
<title>10</title>
<path fill="none" stroke="#56b1d8" stroke-width="2" d="M549,-108C549,-108 493,-108 493,-108 487,-108 481,-102 481,-96 481,-96 481,-84 481,-84 481,-78 487,-72 493,-72 493,-72 549,-72 549,-72 555,-72 561,-78 561,-84 561,-84 561,-96 561,-96 561,-102 555,-108 549,-108"/>
<text text-anchor="middle" x="521" y="-87.5" font-family="sans" font-size="10.00">rgi_detection</text>
</g>
<!-- 10&#45;&gt;0 -->
<g id="edge1" class="edge">
<title>10&#45;&gt;0</title>
<path fill="none" stroke="grey" stroke-width="2" d="M482.1,-71.88C456.51,-60.61 423.23,-45.96 398.2,-34.94"/>
<polygon fill="grey" stroke="grey" stroke-width="2" points="399.6,-31.73 389.04,-30.9 396.78,-38.14 399.6,-31.73"/>
</g>
<!-- 11 -->
<g id="node12" class="node">
<title>11</title>
<path fill="none" stroke="#5673d8" stroke-width="2" d="M642.5,-108C642.5,-108 591.5,-108 591.5,-108 585.5,-108 579.5,-102 579.5,-96 579.5,-96 579.5,-84 579.5,-84 579.5,-78 585.5,-72 591.5,-72 591.5,-72 642.5,-72 642.5,-72 648.5,-72 654.5,-78 654.5,-84 654.5,-84 654.5,-96 654.5,-96 654.5,-102 648.5,-108 642.5,-108"/>
<text text-anchor="middle" x="617" y="-87.5" font-family="sans" font-size="10.00">viz_synteny</text>
</g>
<!-- 11&#45;&gt;0 -->
<g id="edge5" class="edge">
<title>11&#45;&gt;0</title>
<path fill="none" stroke="grey" stroke-width="2" d="M579.4,-75.03C576.23,-73.97 573.07,-72.94 570,-72 510.89,-53.83 441.02,-36.95 399.17,-27.32"/>
<polygon fill="grey" stroke="grey" stroke-width="2" points="399.69,-23.84 389.16,-25.03 398.13,-30.67 399.69,-23.84"/>
</g>
<!-- 12 -->
<g id="node13" class="node">
<title>12</title>
<path fill="none" stroke="#5692d8" stroke-width="2" d="M624.5,-180C624.5,-180 541.5,-180 541.5,-180 535.5,-180 529.5,-174 529.5,-168 529.5,-168 529.5,-156 529.5,-156 529.5,-150 535.5,-144 541.5,-144 541.5,-144 624.5,-144 624.5,-144 630.5,-144 636.5,-150 636.5,-156 636.5,-156 636.5,-168 636.5,-168 636.5,-174 630.5,-180 624.5,-180"/>
<text text-anchor="middle" x="583" y="-159.5" font-family="sans" font-size="10.00">synteny_detection</text>
</g>
<!-- 12&#45;&gt;11 -->
<g id="edge12" class="edge">
<title>12&#45;&gt;11</title>
<path fill="none" stroke="grey" stroke-width="2" d="M591.4,-143.7C595.27,-135.73 599.95,-126.1 604.24,-117.26"/>
<polygon fill="grey" stroke="grey" stroke-width="2" points="607.47,-118.63 608.69,-108.1 601.17,-115.57 607.47,-118.63"/>
</g>
<!-- 13 -->
<g id="node14" class="node">
<title>13</title>
<path fill="none" stroke="#56d882" stroke-width="2" d="M735,-180C735,-180 667,-180 667,-180 661,-180 655,-174 655,-168 655,-168 655,-156 655,-156 655,-150 661,-144 667,-144 667,-144 735,-144 735,-144 741,-144 747,-150 747,-156 747,-156 747,-168 747,-168 747,-174 741,-180 735,-180"/>
<text text-anchor="middle" x="701" y="-159.5" font-family="sans" font-size="10.00">prepare_names</text>
</g>
<!-- 13&#45;&gt;11 -->
<g id="edge13" class="edge">
<title>13&#45;&gt;11</title>
<path fill="none" stroke="grey" stroke-width="2" d="M680.24,-143.7C669.76,-134.97 656.89,-124.24 645.5,-114.75"/>
<polygon fill="grey" stroke="grey" stroke-width="2" points="647.45,-111.82 637.53,-108.1 642.97,-117.19 647.45,-111.82"/>
</g>
</g>
</svg>
