<?xml version="1.0" encoding="UTF-8" standalone="no"?>
<!DOCTYPE svg PUBLIC "-//W3C//DTD SVG 1.1//EN"
 "http://www.w3.org/Graphics/SVG/1.1/DTD/svg11.dtd">
<!-- Generated by graphviz version 2.43.0 (0)
 -->
<!-- Title: snakemake_dag Pages: 1 -->
<svg width="329pt" height="404pt"
 viewBox="0.00 0.00 329.03 404.00" xmlns="http://www.w3.org/2000/svg" xmlns:xlink="http://www.w3.org/1999/xlink">
<g id="graph0" class="graph" transform="scale(1 1) rotate(0) translate(4 400)">
<title>snakemake_dag</title>
<polygon fill="white" stroke="transparent" points="-4,4 -4,-400 325.03,-400 325.03,4 -4,4"/>
<!-- 0 -->
<g id="node1" class="node">
<title>0</title>
<path fill="none" stroke="#d85656" stroke-width="2" d="M175,-36C175,-36 145,-36 145,-36 139,-36 133,-30 133,-24 133,-24 133,-12 133,-12 133,-6 139,0 145,0 145,0 175,0 175,0 181,0 187,-6 187,-12 187,-12 187,-24 187,-24 187,-30 181,-36 175,-36"/>
<text text-anchor="middle" x="160" y="-15.5" font-family="sans" font-size="10.00">all</text>
</g>
<!-- 1 -->
<g id="node2" class="node">
<title>1</title>
<path fill="none" stroke="#568ad8" stroke-width="2" d="M128,-180C128,-180 98,-180 98,-180 92,-180 86,-174 86,-168 86,-168 86,-156 86,-156 86,-150 92,-144 98,-144 98,-144 128,-144 128,-144 134,-144 140,-150 140,-156 140,-156 140,-168 140,-168 140,-174 134,-180 128,-180"/>
<text text-anchor="middle" x="113" y="-159.5" font-family="sans" font-size="10.00">quast</text>
</g>
<!-- 1&#45;&gt;0 -->
<g id="edge2" class="edge">
<title>1&#45;&gt;0</title>
<path fill="none" stroke="grey" stroke-width="2" d="M118.67,-143.87C126.71,-119.56 141.52,-74.82 151.06,-46.01"/>
<polygon fill="grey" stroke="grey" stroke-width="2" points="154.49,-46.78 154.31,-36.19 147.85,-44.58 154.49,-46.78"/>
</g>
<!-- 2 -->
<g id="node3" class="node">
<title>2</title>
<path fill="none" stroke="#bed856" stroke-width="2" d="M86,-252C86,-252 12,-252 12,-252 6,-252 0,-246 0,-240 0,-240 0,-228 0,-228 0,-222 6,-216 12,-216 12,-216 86,-216 86,-216 92,-216 98,-222 98,-228 98,-228 98,-240 98,-240 98,-246 92,-252 86,-252"/>
<text text-anchor="middle" x="49" y="-231.5" font-family="sans" font-size="10.00">annotate_prokka</text>
</g>
<!-- 2&#45;&gt;1 -->
<g id="edge5" class="edge">
<title>2&#45;&gt;1</title>
<path fill="none" stroke="grey" stroke-width="2" d="M64.82,-215.7C72.57,-207.22 82.04,-196.86 90.52,-187.58"/>
<polygon fill="grey" stroke="grey" stroke-width="2" points="93.2,-189.85 97.36,-180.1 88.03,-185.12 93.2,-189.85"/>
</g>
<!-- 9 -->
<g id="node10" class="node">
<title>9</title>
<path fill="none" stroke="#56d8c1" stroke-width="2" d="M245.5,-180C245.5,-180 170.5,-180 170.5,-180 164.5,-180 158.5,-174 158.5,-168 158.5,-168 158.5,-156 158.5,-156 158.5,-150 164.5,-144 170.5,-144 170.5,-144 245.5,-144 245.5,-144 251.5,-144 257.5,-150 257.5,-156 257.5,-156 257.5,-168 257.5,-168 257.5,-174 251.5,-180 245.5,-180"/>
<text text-anchor="middle" x="208" y="-159.5" font-family="sans" font-size="10.00">prepare_panaroo</text>
</g>
<!-- 2&#45;&gt;9 -->
<g id="edge14" class="edge">
<title>2&#45;&gt;9</title>
<path fill="none" stroke="grey" stroke-width="2" d="M87.9,-215.88C109.63,-206.31 136.9,-194.3 159.96,-184.15"/>
<polygon fill="grey" stroke="grey" stroke-width="2" points="161.49,-187.3 169.23,-180.07 158.67,-180.89 161.49,-187.3"/>
</g>
<!-- 3 -->
<g id="node4" class="node">
<title>3</title>
<path fill="none" stroke="#59d856" stroke-width="2" d="M168,-396C168,-396 130,-396 130,-396 124,-396 118,-390 118,-384 118,-384 118,-372 118,-372 118,-366 124,-360 130,-360 130,-360 168,-360 168,-360 174,-360 180,-366 180,-372 180,-372 180,-384 180,-384 180,-390 174,-396 168,-396"/>
<text text-anchor="middle" x="149" y="-375.5" font-family="sans" font-size="10.00">get_fasta</text>
</g>
<!-- 3&#45;&gt;2 -->
<g id="edge6" class="edge">
<title>3&#45;&gt;2</title>
<path fill="none" stroke="grey" stroke-width="2" d="M122.66,-359.85C109.93,-350.49 95.22,-337.97 85,-324 71.3,-305.27 61.85,-280.59 56.08,-261.97"/>
<polygon fill="grey" stroke="grey" stroke-width="2" points="59.43,-260.94 53.26,-252.33 52.71,-262.91 59.43,-260.94"/>
</g>
<!-- 5 -->
<g id="node6" class="node">
<title>5</title>
<path fill="none" stroke="#56c1d8" stroke-width="2" d="M192,-324C192,-324 106,-324 106,-324 100,-324 94,-318 94,-312 94,-312 94,-300 94,-300 94,-294 100,-288 106,-288 106,-288 192,-288 192,-288 198,-288 204,-294 204,-300 204,-300 204,-312 204,-312 204,-318 198,-324 192,-324"/>
<text text-anchor="middle" x="149" y="-303.5" font-family="sans" font-size="10.00">prepare_yaml_files</text>
</g>
<!-- 3&#45;&gt;5 -->
<g id="edge8" class="edge">
<title>3&#45;&gt;5</title>
<path fill="none" stroke="grey" stroke-width="2" d="M149,-359.7C149,-351.98 149,-342.71 149,-334.11"/>
<polygon fill="grey" stroke="grey" stroke-width="2" points="152.5,-334.1 149,-324.1 145.5,-334.1 152.5,-334.1"/>
</g>
<!-- 6 -->
<g id="node7" class="node">
<title>6</title>
<path fill="none" stroke="#d88d56" stroke-width="2" d="M304.5,-252C304.5,-252 235.5,-252 235.5,-252 229.5,-252 223.5,-246 223.5,-240 223.5,-240 223.5,-228 223.5,-228 223.5,-222 229.5,-216 235.5,-216 235.5,-216 304.5,-216 304.5,-216 310.5,-216 316.5,-222 316.5,-228 316.5,-228 316.5,-240 316.5,-240 316.5,-246 310.5,-252 304.5,-252"/>
<text text-anchor="middle" x="270" y="-231.5" font-family="sans" font-size="10.00">annotate_bakta</text>
</g>
<!-- 3&#45;&gt;6 -->
<g id="edge10" class="edge">
<title>3&#45;&gt;6</title>
<path fill="none" stroke="grey" stroke-width="2" d="M180.3,-377.23C219.17,-375.61 284.13,-366.26 315,-324 329.66,-303.94 313.74,-278.4 296.92,-259.83"/>
<polygon fill="grey" stroke="grey" stroke-width="2" points="299.19,-257.14 289.75,-252.34 294.14,-261.98 299.19,-257.14"/>
</g>
<!-- 4 -->
<g id="node5" class="node">
<title>4</title>
<path fill="none" stroke="#d8bc56" stroke-width="2" d="M193.5,-252C193.5,-252 128.5,-252 128.5,-252 122.5,-252 116.5,-246 116.5,-240 116.5,-240 116.5,-228 116.5,-228 116.5,-222 122.5,-216 128.5,-216 128.5,-216 193.5,-216 193.5,-216 199.5,-216 205.5,-222 205.5,-228 205.5,-228 205.5,-240 205.5,-240 205.5,-246 199.5,-252 193.5,-252"/>
<text text-anchor="middle" x="161" y="-231.5" font-family="sans" font-size="10.00">annotate_pgap</text>
</g>
<!-- 4&#45;&gt;1 -->
<g id="edge4" class="edge">
<title>4&#45;&gt;1</title>
<path fill="none" stroke="grey" stroke-width="2" d="M149.13,-215.7C143.5,-207.47 136.65,-197.48 130.43,-188.42"/>
<polygon fill="grey" stroke="grey" stroke-width="2" points="133.27,-186.37 124.73,-180.1 127.5,-190.33 133.27,-186.37"/>
</g>
<!-- 4&#45;&gt;9 -->
<g id="edge13" class="edge">
<title>4&#45;&gt;9</title>
<path fill="none" stroke="grey" stroke-width="2" d="M172.62,-215.7C178.14,-207.47 184.85,-197.48 190.93,-188.42"/>
<polygon fill="grey" stroke="grey" stroke-width="2" points="193.85,-190.36 196.52,-180.1 188.04,-186.46 193.85,-190.36"/>
</g>
<!-- 5&#45;&gt;4 -->
<g id="edge7" class="edge">
<title>5&#45;&gt;4</title>
<path fill="none" stroke="grey" stroke-width="2" d="M151.97,-287.7C153.29,-279.98 154.88,-270.71 156.35,-262.11"/>
<polygon fill="grey" stroke="grey" stroke-width="2" points="159.83,-262.55 158.07,-252.1 152.93,-261.37 159.83,-262.55"/>
</g>
<!-- 6&#45;&gt;1 -->
<g id="edge3" class="edge">
<title>6&#45;&gt;1</title>
<path fill="none" stroke="grey" stroke-width="2" d="M230.37,-215.98C208.71,-206.6 181.25,-194.58 149.24,-180.06"/>
<polygon fill="grey" stroke="grey" stroke-width="2" points="150.64,-176.85 140.09,-175.89 147.74,-183.22 150.64,-176.85"/>
</g>
<!-- 6&#45;&gt;9 -->
<g id="edge12" class="edge">
<title>6&#45;&gt;9</title>
<path fill="none" stroke="grey" stroke-width="2" d="M254.67,-215.7C247.24,-207.3 238.18,-197.07 230.02,-187.86"/>
<polygon fill="grey" stroke="grey" stroke-width="2" points="232.4,-185.27 223.15,-180.1 227.16,-189.91 232.4,-185.27"/>
</g>
<!-- 7 -->
<g id="node8" class="node">
<title>7</title>
<path fill="none" stroke="#88d856" stroke-width="2" d="M293.5,-324C293.5,-324 234.5,-324 234.5,-324 228.5,-324 222.5,-318 222.5,-312 222.5,-312 222.5,-300 222.5,-300 222.5,-294 228.5,-288 234.5,-288 234.5,-288 293.5,-288 293.5,-288 299.5,-288 305.5,-294 305.5,-300 305.5,-300 305.5,-312 305.5,-312 305.5,-318 299.5,-324 293.5,-324"/>
<text text-anchor="middle" x="264" y="-303.5" font-family="sans" font-size="10.00">get_bakta_db</text>
</g>
<!-- 7&#45;&gt;6 -->
<g id="edge9" class="edge">
<title>7&#45;&gt;6</title>
<path fill="none" stroke="grey" stroke-width="2" d="M265.48,-287.7C266.14,-279.98 266.94,-270.71 267.68,-262.11"/>
<polygon fill="grey" stroke="grey" stroke-width="2" points="271.17,-262.37 268.53,-252.1 264.19,-261.77 271.17,-262.37"/>
</g>
<!-- 8 -->
<g id="node9" class="node">
<title>8</title>
<path fill="none" stroke="#56d88a" stroke-width="2" d="M214,-108C214,-108 182,-108 182,-108 176,-108 170,-102 170,-96 170,-96 170,-84 170,-84 170,-78 176,-72 182,-72 182,-72 214,-72 214,-72 220,-72 226,-78 226,-84 226,-84 226,-96 226,-96 226,-102 220,-108 214,-108"/>
<text text-anchor="middle" x="198" y="-87.5" font-family="sans" font-size="10.00">panaroo</text>
</g>
<!-- 8&#45;&gt;0 -->
<g id="edge1" class="edge">
<title>8&#45;&gt;0</title>
<path fill="none" stroke="grey" stroke-width="2" d="M188.61,-71.7C184.24,-63.64 178.94,-53.89 174.1,-44.98"/>
<polygon fill="grey" stroke="grey" stroke-width="2" points="177.13,-43.22 169.29,-36.1 170.98,-46.56 177.13,-43.22"/>
</g>
<!-- 9&#45;&gt;8 -->
<g id="edge11" class="edge">
<title>9&#45;&gt;8</title>
<path fill="none" stroke="grey" stroke-width="2" d="M205.53,-143.7C204.43,-135.98 203.1,-126.71 201.87,-118.11"/>
<polygon fill="grey" stroke="grey" stroke-width="2" points="205.32,-117.51 200.44,-108.1 198.39,-118.5 205.32,-117.51"/>
</g>
</g>
</svg>
