<?xml version="1.0" encoding="UTF-8" standalone="no"?>
<!DOCTYPE svg PUBLIC "-//W3C//DTD SVG 1.1//EN"
 "http://www.w3.org/Graphics/SVG/1.1/DTD/svg11.dtd">
<!-- Generated by graphviz version 2.43.0 (0)
 -->
<!-- Title: snakemake_dag Pages: 1 -->
<svg width="543pt" height="260pt"
 viewBox="0.00 0.00 543.00 260.00" xmlns="http://www.w3.org/2000/svg" xmlns:xlink="http://www.w3.org/1999/xlink">
<g id="graph0" class="graph" transform="scale(1 1) rotate(0) translate(4 256)">
<title>snakemake_dag</title>
<polygon fill="white" stroke="transparent" points="-4,4 -4,-256 539,-256 539,4 -4,4"/>
<!-- 0 -->
<g id="node1" class="node">
<title>0</title>
<path fill="none" stroke="#d85656" stroke-width="2" d="M201,-36C201,-36 171,-36 171,-36 165,-36 159,-30 159,-24 159,-24 159,-12 159,-12 159,-6 165,0 171,0 171,0 201,0 201,0 207,0 213,-6 213,-12 213,-12 213,-24 213,-24 213,-30 207,-36 201,-36"/>
<text text-anchor="middle" x="186" y="-15.5" font-family="sans" font-size="10.00">all</text>
</g>
<!-- 1 -->
<g id="node2" class="node">
<title>1</title>
<path fill="none" stroke="#d8bc56" stroke-width="2" d="M86,-252C86,-252 12,-252 12,-252 6,-252 0,-246 0,-240 0,-240 0,-228 0,-228 0,-222 6,-216 12,-216 12,-216 86,-216 86,-216 92,-216 98,-222 98,-228 98,-228 98,-240 98,-240 98,-246 92,-252 86,-252"/>
<text text-anchor="middle" x="49" y="-231.5" font-family="sans" font-size="10.00">annotate_prokka</text>
</g>
<!-- 1&#45;&gt;0 -->
<g id="edge3" class="edge">
<title>1&#45;&gt;0</title>
<path fill="none" stroke="grey" stroke-width="2" d="M40.69,-215.79C36.26,-205.63 31.26,-192.38 29,-180 20.34,-132.53 9.4,-109.3 40,-72 66.74,-39.41 115.26,-26.86 149,-22.03"/>
<polygon fill="grey" stroke="grey" stroke-width="2" points="149.47,-25.49 158.95,-20.76 148.59,-18.55 149.47,-25.49"/>
</g>
<!-- 4 -->
<g id="node5" class="node">
<title>4</title>
<path fill="none" stroke="#56d88a" stroke-width="2" d="M125.5,-180C125.5,-180 50.5,-180 50.5,-180 44.5,-180 38.5,-174 38.5,-168 38.5,-168 38.5,-156 38.5,-156 38.5,-150 44.5,-144 50.5,-144 50.5,-144 125.5,-144 125.5,-144 131.5,-144 137.5,-150 137.5,-156 137.5,-156 137.5,-168 137.5,-168 137.5,-174 131.5,-180 125.5,-180"/>
<text text-anchor="middle" x="88" y="-159.5" font-family="sans" font-size="10.00">prepare_panaroo</text>
</g>
<!-- 1&#45;&gt;4 -->
<g id="edge8" class="edge">
<title>1&#45;&gt;4</title>
<path fill="none" stroke="grey" stroke-width="2" d="M58.64,-215.7C63.13,-207.64 68.56,-197.89 73.52,-188.98"/>
<polygon fill="grey" stroke="grey" stroke-width="2" points="76.66,-190.54 78.47,-180.1 70.55,-187.14 76.66,-190.54"/>
</g>
<!-- 2 -->
<g id="node3" class="node">
<title>2</title>
<path fill="none" stroke="#56d8d0" stroke-width="2" d="M165,-108C165,-108 135,-108 135,-108 129,-108 123,-102 123,-96 123,-96 123,-84 123,-84 123,-78 129,-72 135,-72 135,-72 165,-72 165,-72 171,-72 177,-78 177,-84 177,-84 177,-96 177,-96 177,-102 171,-108 165,-108"/>
<text text-anchor="middle" x="150" y="-87.5" font-family="sans" font-size="10.00">quast</text>
</g>
<!-- 2&#45;&gt;0 -->
<g id="edge6" class="edge">
<title>2&#45;&gt;0</title>
<path fill="none" stroke="grey" stroke-width="2" d="M158.9,-71.7C163,-63.73 167.95,-54.1 172.49,-45.26"/>
<polygon fill="grey" stroke="grey" stroke-width="2" points="175.74,-46.6 177.2,-36.1 169.52,-43.4 175.74,-46.6"/>
</g>
<!-- 3 -->
<g id="node4" class="node">
<title>3</title>
<path fill="none" stroke="#68d856" stroke-width="2" d="M93,-108C93,-108 61,-108 61,-108 55,-108 49,-102 49,-96 49,-96 49,-84 49,-84 49,-78 55,-72 61,-72 61,-72 93,-72 93,-72 99,-72 105,-78 105,-84 105,-84 105,-96 105,-96 105,-102 99,-108 93,-108"/>
<text text-anchor="middle" x="77" y="-87.5" font-family="sans" font-size="10.00">panaroo</text>
</g>
<!-- 3&#45;&gt;0 -->
<g id="edge4" class="edge">
<title>3&#45;&gt;0</title>
<path fill="none" stroke="grey" stroke-width="2" d="M103.66,-71.88C117.78,-62.81 135.31,-51.55 150.56,-41.76"/>
<polygon fill="grey" stroke="grey" stroke-width="2" points="152.71,-44.54 159.23,-36.19 148.93,-38.65 152.71,-44.54"/>
</g>
<!-- 4&#45;&gt;3 -->
<g id="edge7" class="edge">
<title>4&#45;&gt;3</title>
<path fill="none" stroke="grey" stroke-width="2" d="M85.28,-143.7C84.07,-135.98 82.61,-126.71 81.26,-118.11"/>
<polygon fill="grey" stroke="grey" stroke-width="2" points="84.7,-117.44 79.69,-108.1 77.78,-118.53 84.7,-117.44"/>
</g>
<!-- 5 -->
<g id="node6" class="node">
<title>5</title>
<path fill="none" stroke="#ced856" stroke-width="2" d="M237,-108C237,-108 207,-108 207,-108 201,-108 195,-102 195,-96 195,-96 195,-84 195,-84 195,-78 201,-72 207,-72 207,-72 237,-72 237,-72 243,-72 249,-78 249,-84 249,-84 249,-96 249,-96 249,-102 243,-108 237,-108"/>
<text text-anchor="middle" x="222" y="-87.5" font-family="sans" font-size="10.00">fastani</text>
</g>
<!-- 5&#45;&gt;0 -->
<g id="edge5" class="edge">
<title>5&#45;&gt;0</title>
<path fill="none" stroke="grey" stroke-width="2" d="M213.1,-71.7C209,-63.73 204.05,-54.1 199.51,-45.26"/>
<polygon fill="grey" stroke="grey" stroke-width="2" points="202.48,-43.4 194.8,-36.1 196.26,-46.6 202.48,-43.4"/>
</g>
<!-- 6 -->
<g id="node7" class="node">
<title>6</title>
<path fill="none" stroke="#56c1d8" stroke-width="2" d="M335,-108C335,-108 279,-108 279,-108 273,-108 267,-102 267,-96 267,-96 267,-84 267,-84 267,-78 273,-72 279,-72 279,-72 335,-72 335,-72 341,-72 347,-78 347,-84 347,-84 347,-96 347,-96 347,-102 341,-108 335,-108"/>
<text text-anchor="middle" x="307" y="-87.5" font-family="sans" font-size="10.00">rgi_detection</text>
</g>
<!-- 6&#45;&gt;0 -->
<g id="edge2" class="edge">
<title>6&#45;&gt;0</title>
<path fill="none" stroke="grey" stroke-width="2" d="M277.4,-71.88C260.72,-62.23 239.75,-50.1 222.11,-39.89"/>
<polygon fill="grey" stroke="grey" stroke-width="2" points="223.63,-36.73 213.23,-34.75 220.13,-42.79 223.63,-36.73"/>
</g>
<!-- 7 -->
<g id="node8" class="node">
<title>7</title>
<path fill="none" stroke="#567bd8" stroke-width="2" d="M428.5,-108C428.5,-108 377.5,-108 377.5,-108 371.5,-108 365.5,-102 365.5,-96 365.5,-96 365.5,-84 365.5,-84 365.5,-78 371.5,-72 377.5,-72 377.5,-72 428.5,-72 428.5,-72 434.5,-72 440.5,-78 440.5,-84 440.5,-84 440.5,-96 440.5,-96 440.5,-102 434.5,-108 428.5,-108"/>
<text text-anchor="middle" x="403" y="-87.5" font-family="sans" font-size="10.00">viz_synteny</text>
</g>
<!-- 7&#45;&gt;0 -->
<g id="edge1" class="edge">
<title>7&#45;&gt;0</title>
<path fill="none" stroke="grey" stroke-width="2" d="M365.34,-75.21C362.19,-74.11 359.04,-73.02 356,-72 310.4,-56.65 257.41,-40.38 222.87,-29.97"/>
<polygon fill="grey" stroke="grey" stroke-width="2" points="223.79,-26.6 213.21,-27.07 221.78,-33.3 223.79,-26.6"/>
</g>
<!-- 8 -->
<g id="node9" class="node">
<title>8</title>
<path fill="none" stroke="#569ad8" stroke-width="2" d="M376.5,-180C376.5,-180 293.5,-180 293.5,-180 287.5,-180 281.5,-174 281.5,-168 281.5,-168 281.5,-156 281.5,-156 281.5,-150 287.5,-144 293.5,-144 293.5,-144 376.5,-144 376.5,-144 382.5,-144 388.5,-150 388.5,-156 388.5,-156 388.5,-168 388.5,-168 388.5,-174 382.5,-180 376.5,-180"/>
<text text-anchor="middle" x="335" y="-159.5" font-family="sans" font-size="10.00">synteny_detection</text>
</g>
<!-- 8&#45;&gt;7 -->
<g id="edge10" class="edge">
<title>8&#45;&gt;7</title>
<path fill="none" stroke="grey" stroke-width="2" d="M351.81,-143.7C360.13,-135.14 370.31,-124.66 379.39,-115.3"/>
<polygon fill="grey" stroke="grey" stroke-width="2" points="381.93,-117.72 386.38,-108.1 376.91,-112.84 381.93,-117.72"/>
</g>
<!-- 9 -->
<g id="node10" class="node">
<title>9</title>
<path fill="none" stroke="#56d86b" stroke-width="2" d="M523,-180C523,-180 419,-180 419,-180 413,-180 407,-174 407,-168 407,-168 407,-156 407,-156 407,-150 413,-144 419,-144 419,-144 523,-144 523,-144 529,-144 535,-150 535,-156 535,-156 535,-168 535,-168 535,-174 529,-180 523,-180"/>
<text text-anchor="middle" x="471" y="-159.5" font-family="sans" font-size="10.00">prepare_ntsynt_names</text>
</g>
<!-- 9&#45;&gt;7 -->
<g id="edge9" class="edge">
<title>9&#45;&gt;7</title>
<path fill="none" stroke="grey" stroke-width="2" d="M454.19,-143.7C445.87,-135.14 435.69,-124.66 426.61,-115.3"/>
<polygon fill="grey" stroke="grey" stroke-width="2" points="429.09,-112.84 419.62,-108.1 424.07,-117.72 429.09,-112.84"/>
</g>
</g>
</svg>
