<?xml version="1.0" encoding="UTF-8" standalone="no"?>
<!DOCTYPE svg PUBLIC "-//W3C//DTD SVG 1.1//EN"
 "http://www.w3.org/Graphics/SVG/1.1/DTD/svg11.dtd">
<!-- Generated by graphviz version 2.43.0 (0)
 -->
<!-- Title: snakemake_dag Pages: 1 -->
<svg width="437pt" height="188pt"
 viewBox="0.00 0.00 437.00 188.00" xmlns="http://www.w3.org/2000/svg" xmlns:xlink="http://www.w3.org/1999/xlink">
<g id="graph0" class="graph" transform="scale(1 1) rotate(0) translate(4 184)">
<title>snakemake_dag</title>
<polygon fill="white" stroke="transparent" points="-4,4 -4,-184 433,-184 433,4 -4,4"/>
<!-- 0 -->
<g id="node1" class="node">
<title>0</title>
<path fill="none" stroke="#d85656" stroke-width="2" d="M200,-36C200,-36 170,-36 170,-36 164,-36 158,-30 158,-24 158,-24 158,-12 158,-12 158,-6 164,0 170,0 170,0 200,0 200,0 206,0 212,-6 212,-12 212,-12 212,-24 212,-24 212,-30 206,-36 200,-36"/>
<text text-anchor="middle" x="185" y="-15.5" font-family="sans" font-size="10.00">all</text>
</g>
<!-- 1 -->
<g id="node2" class="node">
<title>1</title>
<path fill="none" stroke="#d8bc56" stroke-width="2" d="M86,-108C86,-108 12,-108 12,-108 6,-108 0,-102 0,-96 0,-96 0,-84 0,-84 0,-78 6,-72 12,-72 12,-72 86,-72 86,-72 92,-72 98,-78 98,-84 98,-84 98,-96 98,-96 98,-102 92,-108 86,-108"/>
<text text-anchor="middle" x="49" y="-87.5" font-family="sans" font-size="10.00">annotate_prokka</text>
</g>
<!-- 1&#45;&gt;0 -->
<g id="edge4" class="edge">
<title>1&#45;&gt;0</title>
<path fill="none" stroke="grey" stroke-width="2" d="M82.27,-71.88C102.32,-61.56 127.87,-48.4 148.48,-37.8"/>
<polygon fill="grey" stroke="grey" stroke-width="2" points="150.27,-40.81 157.56,-33.12 147.07,-34.59 150.27,-40.81"/>
</g>
<!-- 2 -->
<g id="node3" class="node">
<title>2</title>
<path fill="none" stroke="#56d8d0" stroke-width="2" d="M158,-108C158,-108 128,-108 128,-108 122,-108 116,-102 116,-96 116,-96 116,-84 116,-84 116,-78 122,-72 128,-72 128,-72 158,-72 158,-72 164,-72 170,-78 170,-84 170,-84 170,-96 170,-96 170,-102 164,-108 158,-108"/>
<text text-anchor="middle" x="143" y="-87.5" font-family="sans" font-size="10.00">quast</text>
</g>
<!-- 2&#45;&gt;0 -->
<g id="edge1" class="edge">
<title>2&#45;&gt;0</title>
<path fill="none" stroke="grey" stroke-width="2" d="M153.38,-71.7C158.26,-63.56 164.19,-53.69 169.58,-44.7"/>
<polygon fill="grey" stroke="grey" stroke-width="2" points="172.59,-46.48 174.74,-36.1 166.59,-42.88 172.59,-46.48"/>
</g>
<!-- 3 -->
<g id="node4" class="node">
<title>3</title>
<path fill="none" stroke="#56c1d8" stroke-width="2" d="M256,-108C256,-108 200,-108 200,-108 194,-108 188,-102 188,-96 188,-96 188,-84 188,-84 188,-78 194,-72 200,-72 200,-72 256,-72 256,-72 262,-72 268,-78 268,-84 268,-84 268,-96 268,-96 268,-102 262,-108 256,-108"/>
<text text-anchor="middle" x="228" y="-87.5" font-family="sans" font-size="10.00">rgi_detection</text>
</g>
<!-- 3&#45;&gt;0 -->
<g id="edge2" class="edge">
<title>3&#45;&gt;0</title>
<path fill="none" stroke="grey" stroke-width="2" d="M217.37,-71.7C212.37,-63.56 206.31,-53.69 200.79,-44.7"/>
<polygon fill="grey" stroke="grey" stroke-width="2" points="203.72,-42.79 195.51,-36.1 197.76,-46.46 203.72,-42.79"/>
</g>
<!-- 4 -->
<g id="node5" class="node">
<title>4</title>
<path fill="none" stroke="#567bd8" stroke-width="2" d="M349.5,-108C349.5,-108 298.5,-108 298.5,-108 292.5,-108 286.5,-102 286.5,-96 286.5,-96 286.5,-84 286.5,-84 286.5,-78 292.5,-72 298.5,-72 298.5,-72 349.5,-72 349.5,-72 355.5,-72 361.5,-78 361.5,-84 361.5,-84 361.5,-96 361.5,-96 361.5,-102 355.5,-108 349.5,-108"/>
<text text-anchor="middle" x="324" y="-87.5" font-family="sans" font-size="10.00">viz_synteny</text>
</g>
<!-- 4&#45;&gt;0 -->
<g id="edge3" class="edge">
<title>4&#45;&gt;0</title>
<path fill="none" stroke="grey" stroke-width="2" d="M290,-71.88C269.13,-61.37 242.44,-47.92 221.18,-37.22"/>
<polygon fill="grey" stroke="grey" stroke-width="2" points="222.65,-34.04 212.14,-32.67 219.5,-40.29 222.65,-34.04"/>
</g>
<!-- 5 -->
<g id="node6" class="node">
<title>5</title>
<path fill="none" stroke="#569ad8" stroke-width="2" d="M306.5,-180C306.5,-180 223.5,-180 223.5,-180 217.5,-180 211.5,-174 211.5,-168 211.5,-168 211.5,-156 211.5,-156 211.5,-150 217.5,-144 223.5,-144 223.5,-144 306.5,-144 306.5,-144 312.5,-144 318.5,-150 318.5,-156 318.5,-156 318.5,-168 318.5,-168 318.5,-174 312.5,-180 306.5,-180"/>
<text text-anchor="middle" x="265" y="-159.5" font-family="sans" font-size="10.00">synteny_detection</text>
</g>
<!-- 5&#45;&gt;4 -->
<g id="edge6" class="edge">
<title>5&#45;&gt;4</title>
<path fill="none" stroke="grey" stroke-width="2" d="M279.58,-143.7C286.66,-135.3 295.28,-125.07 303.05,-115.86"/>
<polygon fill="grey" stroke="grey" stroke-width="2" points="305.81,-118.01 309.58,-108.1 300.46,-113.49 305.81,-118.01"/>
</g>
<!-- 6 -->
<g id="node7" class="node">
<title>6</title>
<path fill="none" stroke="#56d86b" stroke-width="2" d="M417,-180C417,-180 349,-180 349,-180 343,-180 337,-174 337,-168 337,-168 337,-156 337,-156 337,-150 343,-144 349,-144 349,-144 417,-144 417,-144 423,-144 429,-150 429,-156 429,-156 429,-168 429,-168 429,-174 423,-180 417,-180"/>
<text text-anchor="middle" x="383" y="-159.5" font-family="sans" font-size="10.00">prepare_names</text>
</g>
<!-- 6&#45;&gt;4 -->
<g id="edge5" class="edge">
<title>6&#45;&gt;4</title>
<path fill="none" stroke="grey" stroke-width="2" d="M368.42,-143.7C361.34,-135.3 352.72,-125.07 344.95,-115.86"/>
<polygon fill="grey" stroke="grey" stroke-width="2" points="347.54,-113.49 338.42,-108.1 342.19,-118.01 347.54,-113.49"/>
</g>
</g>
</svg>
