<?xml version="1.0" encoding="UTF-8" standalone="no"?>
<!DOCTYPE svg PUBLIC "-//W3C//DTD SVG 1.1//EN"
 "http://www.w3.org/Graphics/SVG/1.1/DTD/svg11.dtd">
<!-- Generated by graphviz version 2.43.0 (0)
 -->
<!-- Title: snakemake_dag Pages: 1 -->
<svg width="459pt" height="404pt"
 viewBox="0.00 0.00 459.00 404.00" xmlns="http://www.w3.org/2000/svg" xmlns:xlink="http://www.w3.org/1999/xlink">
<g id="graph0" class="graph" transform="scale(1 1) rotate(0) translate(4 400)">
<title>snakemake_dag</title>
<polygon fill="white" stroke="transparent" points="-4,4 -4,-400 455,-400 455,4 -4,4"/>
<!-- 0 -->
<g id="node1" class="node">
<title>0</title>
<path fill="none" stroke="#d85656" stroke-width="2" d="M231,-36C231,-36 201,-36 201,-36 195,-36 189,-30 189,-24 189,-24 189,-12 189,-12 189,-6 195,0 201,0 201,0 231,0 231,0 237,0 243,-6 243,-12 243,-12 243,-24 243,-24 243,-30 237,-36 231,-36"/>
<text text-anchor="middle" x="216" y="-15.5" font-family="sans" font-size="10.00">all</text>
</g>
<!-- 1 -->
<g id="node2" class="node">
<title>1</title>
<path fill="none" stroke="#d6d856" stroke-width="2" d="M86,-252C86,-252 12,-252 12,-252 6,-252 0,-246 0,-240 0,-240 0,-228 0,-228 0,-222 6,-216 12,-216 12,-216 86,-216 86,-216 92,-216 98,-222 98,-228 98,-228 98,-240 98,-240 98,-246 92,-252 86,-252"/>
<text text-anchor="middle" x="49" y="-231.5" font-family="sans" font-size="10.00">annotate_prokka</text>
</g>
<!-- 1&#45;&gt;0 -->
<g id="edge4" class="edge">
<title>1&#45;&gt;0</title>
<path fill="none" stroke="grey" stroke-width="2" d="M48.23,-215.71C47.73,-183.54 51.21,-113.95 87,-72 110.27,-44.73 149.76,-31.28 178.94,-24.78"/>
<polygon fill="grey" stroke="grey" stroke-width="2" points="179.69,-28.2 188.79,-22.76 178.29,-21.34 179.69,-28.2"/>
</g>
<!-- 9 -->
<g id="node10" class="node">
<title>9</title>
<path fill="none" stroke="#56d8a9" stroke-width="2" d="M202.5,-180C202.5,-180 127.5,-180 127.5,-180 121.5,-180 115.5,-174 115.5,-168 115.5,-168 115.5,-156 115.5,-156 115.5,-150 121.5,-144 127.5,-144 127.5,-144 202.5,-144 202.5,-144 208.5,-144 214.5,-150 214.5,-156 214.5,-156 214.5,-168 214.5,-168 214.5,-174 208.5,-180 202.5,-180"/>
<text text-anchor="middle" x="165" y="-159.5" font-family="sans" font-size="10.00">prepare_panaroo</text>
</g>
<!-- 1&#45;&gt;9 -->
<g id="edge12" class="edge">
<title>1&#45;&gt;9</title>
<path fill="none" stroke="grey" stroke-width="2" d="M77.38,-215.88C92.54,-206.72 111.41,-195.34 127.74,-185.48"/>
<polygon fill="grey" stroke="grey" stroke-width="2" points="129.76,-188.35 136.51,-180.19 126.14,-182.36 129.76,-188.35"/>
</g>
<!-- 2 -->
<g id="node3" class="node">
<title>2</title>
<path fill="none" stroke="#d88556" stroke-width="2" d="M197.5,-252C197.5,-252 128.5,-252 128.5,-252 122.5,-252 116.5,-246 116.5,-240 116.5,-240 116.5,-228 116.5,-228 116.5,-222 122.5,-216 128.5,-216 128.5,-216 197.5,-216 197.5,-216 203.5,-216 209.5,-222 209.5,-228 209.5,-228 209.5,-240 209.5,-240 209.5,-246 203.5,-252 197.5,-252"/>
<text text-anchor="middle" x="163" y="-231.5" font-family="sans" font-size="10.00">annotate_bakta</text>
</g>
<!-- 2&#45;&gt;0 -->
<g id="edge5" class="edge">
<title>2&#45;&gt;0</title>
<path fill="none" stroke="grey" stroke-width="2" d="M136.42,-215.91C124.76,-206.81 112.31,-194.49 106,-180 86.83,-135.99 80.47,-112.65 106,-72 121.93,-46.65 153.77,-33.13 179.11,-26.12"/>
<polygon fill="grey" stroke="grey" stroke-width="2" points="179.98,-29.51 188.81,-23.65 178.25,-22.72 179.98,-29.51"/>
</g>
<!-- 2&#45;&gt;9 -->
<g id="edge14" class="edge">
<title>2&#45;&gt;9</title>
<path fill="none" stroke="grey" stroke-width="2" d="M163.49,-215.7C163.71,-207.98 163.98,-198.71 164.23,-190.11"/>
<polygon fill="grey" stroke="grey" stroke-width="2" points="167.72,-190.2 164.51,-180.1 160.73,-190 167.72,-190.2"/>
</g>
<!-- 3 -->
<g id="node4" class="node">
<title>3</title>
<path fill="none" stroke="#80d856" stroke-width="2" d="M189.5,-324C189.5,-324 130.5,-324 130.5,-324 124.5,-324 118.5,-318 118.5,-312 118.5,-312 118.5,-300 118.5,-300 118.5,-294 124.5,-288 130.5,-288 130.5,-288 189.5,-288 189.5,-288 195.5,-288 201.5,-294 201.5,-300 201.5,-300 201.5,-312 201.5,-312 201.5,-318 195.5,-324 189.5,-324"/>
<text text-anchor="middle" x="160" y="-303.5" font-family="sans" font-size="10.00">get_bakta_db</text>
</g>
<!-- 3&#45;&gt;2 -->
<g id="edge8" class="edge">
<title>3&#45;&gt;2</title>
<path fill="none" stroke="grey" stroke-width="2" d="M160.74,-287.7C161.07,-279.98 161.47,-270.71 161.84,-262.11"/>
<polygon fill="grey" stroke="grey" stroke-width="2" points="165.34,-262.25 162.27,-252.1 158.34,-261.95 165.34,-262.25"/>
</g>
<!-- 4 -->
<g id="node5" class="node">
<title>4</title>
<path fill="none" stroke="#d8ac56" stroke-width="2" d="M304.5,-252C304.5,-252 239.5,-252 239.5,-252 233.5,-252 227.5,-246 227.5,-240 227.5,-240 227.5,-228 227.5,-228 227.5,-222 233.5,-216 239.5,-216 239.5,-216 304.5,-216 304.5,-216 310.5,-216 316.5,-222 316.5,-228 316.5,-228 316.5,-240 316.5,-240 316.5,-246 310.5,-252 304.5,-252"/>
<text text-anchor="middle" x="272" y="-231.5" font-family="sans" font-size="10.00">annotate_pgap</text>
</g>
<!-- 4&#45;&gt;0 -->
<g id="edge7" class="edge">
<title>4&#45;&gt;0</title>
<path fill="none" stroke="grey" stroke-width="2" d="M272.46,-215.93C272.72,-185.83 270.76,-121.82 252,-72 248.39,-62.42 242.73,-52.88 236.95,-44.59"/>
<polygon fill="grey" stroke="grey" stroke-width="2" points="239.71,-42.43 230.97,-36.45 234.07,-46.58 239.71,-42.43"/>
</g>
<!-- 4&#45;&gt;9 -->
<g id="edge13" class="edge">
<title>4&#45;&gt;9</title>
<path fill="none" stroke="grey" stroke-width="2" d="M245.82,-215.88C231.96,-206.81 214.76,-195.55 199.79,-185.76"/>
<polygon fill="grey" stroke="grey" stroke-width="2" points="201.56,-182.74 191.28,-180.19 197.73,-188.59 201.56,-182.74"/>
</g>
<!-- 5 -->
<g id="node6" class="node">
<title>5</title>
<path fill="none" stroke="#56d8d8" stroke-width="2" d="M318,-324C318,-324 232,-324 232,-324 226,-324 220,-318 220,-312 220,-312 220,-300 220,-300 220,-294 226,-288 232,-288 232,-288 318,-288 318,-288 324,-288 330,-294 330,-300 330,-300 330,-312 330,-312 330,-318 324,-324 318,-324"/>
<text text-anchor="middle" x="275" y="-303.5" font-family="sans" font-size="10.00">prepare_yaml_files</text>
</g>
<!-- 5&#45;&gt;4 -->
<g id="edge9" class="edge">
<title>5&#45;&gt;4</title>
<path fill="none" stroke="grey" stroke-width="2" d="M274.26,-287.7C273.93,-279.98 273.53,-270.71 273.16,-262.11"/>
<polygon fill="grey" stroke="grey" stroke-width="2" points="276.66,-261.95 272.73,-252.1 269.66,-262.25 276.66,-261.95"/>
</g>
<!-- 6 -->
<g id="node7" class="node">
<title>6</title>
<path fill="none" stroke="#59d856" stroke-width="2" d="M309,-396C309,-396 241,-396 241,-396 235,-396 229,-390 229,-384 229,-384 229,-372 229,-372 229,-366 235,-360 241,-360 241,-360 309,-360 309,-360 315,-360 321,-366 321,-372 321,-372 321,-384 321,-384 321,-390 315,-396 309,-396"/>
<text text-anchor="middle" x="275" y="-375.5" font-family="sans" font-size="10.00">get_pgap_fasta</text>
</g>
<!-- 6&#45;&gt;5 -->
<g id="edge10" class="edge">
<title>6&#45;&gt;5</title>
<path fill="none" stroke="grey" stroke-width="2" d="M275,-359.7C275,-351.98 275,-342.71 275,-334.11"/>
<polygon fill="grey" stroke="grey" stroke-width="2" points="278.5,-334.1 275,-324.1 271.5,-334.1 278.5,-334.1"/>
</g>
<!-- 7 -->
<g id="node8" class="node">
<title>7</title>
<path fill="none" stroke="#56a9d8" stroke-width="2" d="M231,-108C231,-108 201,-108 201,-108 195,-108 189,-102 189,-96 189,-96 189,-84 189,-84 189,-78 195,-72 201,-72 201,-72 231,-72 231,-72 237,-72 243,-78 243,-84 243,-84 243,-96 243,-96 243,-102 237,-108 231,-108"/>
<text text-anchor="middle" x="216" y="-87.5" font-family="sans" font-size="10.00">quast</text>
</g>
<!-- 7&#45;&gt;0 -->
<g id="edge2" class="edge">
<title>7&#45;&gt;0</title>
<path fill="none" stroke="grey" stroke-width="2" d="M216,-71.7C216,-63.98 216,-54.71 216,-46.11"/>
<polygon fill="grey" stroke="grey" stroke-width="2" points="219.5,-46.1 216,-36.1 212.5,-46.1 219.5,-46.1"/>
</g>
<!-- 8 -->
<g id="node9" class="node">
<title>8</title>
<path fill="none" stroke="#56d882" stroke-width="2" d="M159,-108C159,-108 127,-108 127,-108 121,-108 115,-102 115,-96 115,-96 115,-84 115,-84 115,-78 121,-72 127,-72 127,-72 159,-72 159,-72 165,-72 171,-78 171,-84 171,-84 171,-96 171,-96 171,-102 165,-108 159,-108"/>
<text text-anchor="middle" x="143" y="-87.5" font-family="sans" font-size="10.00">panaroo</text>
</g>
<!-- 8&#45;&gt;0 -->
<g id="edge1" class="edge">
<title>8&#45;&gt;0</title>
<path fill="none" stroke="grey" stroke-width="2" d="M161.04,-71.7C170.06,-63.05 181.12,-52.45 190.94,-43.03"/>
<polygon fill="grey" stroke="grey" stroke-width="2" points="193.37,-45.55 198.16,-36.1 188.52,-40.5 193.37,-45.55"/>
</g>
<!-- 9&#45;&gt;8 -->
<g id="edge11" class="edge">
<title>9&#45;&gt;8</title>
<path fill="none" stroke="grey" stroke-width="2" d="M159.56,-143.7C157.11,-135.9 154.16,-126.51 151.43,-117.83"/>
<polygon fill="grey" stroke="grey" stroke-width="2" points="154.71,-116.59 148.38,-108.1 148.04,-118.69 154.71,-116.59"/>
</g>
<!-- 10 -->
<g id="node11" class="node">
<title>10</title>
<path fill="none" stroke="#afd856" stroke-width="2" d="M341,-108C341,-108 311,-108 311,-108 305,-108 299,-102 299,-96 299,-96 299,-84 299,-84 299,-78 305,-72 311,-72 311,-72 341,-72 341,-72 347,-72 353,-78 353,-84 353,-84 353,-96 353,-96 353,-102 347,-108 341,-108"/>
<text text-anchor="middle" x="326" y="-87.5" font-family="sans" font-size="10.00">fastani</text>
</g>
<!-- 10&#45;&gt;0 -->
<g id="edge3" class="edge">
<title>10&#45;&gt;0</title>
<path fill="none" stroke="grey" stroke-width="2" d="M299.09,-71.88C284.84,-62.81 267.15,-51.55 251.76,-41.76"/>
<polygon fill="grey" stroke="grey" stroke-width="2" points="253.33,-38.61 243.01,-36.19 249.57,-44.51 253.33,-38.61"/>
</g>
<!-- 11 -->
<g id="node12" class="node">
<title>11</title>
<path fill="none" stroke="#5682d8" stroke-width="2" d="M439,-108C439,-108 383,-108 383,-108 377,-108 371,-102 371,-96 371,-96 371,-84 371,-84 371,-78 377,-72 383,-72 383,-72 439,-72 439,-72 445,-72 451,-78 451,-84 451,-84 451,-96 451,-96 451,-102 445,-108 439,-108"/>
<text text-anchor="middle" x="411" y="-87.5" font-family="sans" font-size="10.00">rgi_detection</text>
</g>
<!-- 11&#45;&gt;0 -->
<g id="edge6" class="edge">
<title>11&#45;&gt;0</title>
<path fill="none" stroke="grey" stroke-width="2" d="M370.6,-74.5C335.87,-62.03 286.23,-44.21 252.64,-32.15"/>
<polygon fill="grey" stroke="grey" stroke-width="2" points="253.79,-28.85 243.19,-28.76 251.42,-35.43 253.79,-28.85"/>
</g>
</g>
</svg>
